<?xml version="1.0" encoding="utf-8" standalone="no"?>
<!DOCTYPE svg PUBLIC "-//W3C//DTD SVG 1.1//EN"
  "http://www.w3.org/Graphics/SVG/1.1/DTD/svg11.dtd">
<svg xmlns:xlink="http://www.w3.org/1999/xlink" width="316pt" height="36pt" viewBox="0 0 316 36" xmlns="http://www.w3.org/2000/svg" version="1.1">
 <metadata>
  <rdf:RDF xmlns:dc="http://purl.org/dc/elements/1.1/" xmlns:cc="http://creativecommons.org/ns#" xmlns:rdf="http://www.w3.org/1999/02/22-rdf-syntax-ns#">
   <cc:Work>
    <dc:type rdf:resource="http://purl.org/dc/dcmitype/StillImage"/>
    <dc:date>2026-10-04T22:23:13.476723</dc:date>
    <dc:format>image/svg+xml</dc:format>
    <dc:creator>
     <cc:Agent>
      <dc:title>Matplotlib v3.8.4, https://matplotlib.org/</dc:title>
     </cc:Agent>
    </dc:creator>
   </cc:Work>
  </rdf:RDF>
 </metadata>
 <defs>
  <style type="text/css">*{stroke-linejoin: round; stroke-linecap: butt}</style>
 </defs>
 <g id="figure_1">
  <g id="patch_1">
   <path d="M 0 36 
L 316 36 
L 316 0 
L 0 0 
z
" style="fill: #ffffff"/>
  </g>
  <g id="text_1">
   <!-- $\mathbf{J}_{\psi}=[-b_E,\ b_N]/(b_N^2+b_E^2)$ -->
   <g style="fill: #024282" transform="translate(0 27) scale(0.32 -0.32)">
    <defs>
     <path id="STIXGeneral-Bold-4a" d="M 3059 4326 
L 3059 4166 
Q 2707 4141 2601 4025 
Q 2496 3910 2496 3558 
L 2496 806 
Q 2496 -614 1139 -614 
Q 666 -614 448 -467 
Q 262 -339 140 -147 
Q 19 45 19 237 
Q 19 416 156 563 
Q 294 710 473 710 
Q 653 710 793 563 
Q 934 416 934 224 
Q 934 128 848 3 
Q 762 -122 762 -198 
Q 762 -403 1050 -403 
Q 1267 -403 1363 -265 
Q 1459 -128 1459 173 
L 1459 3693 
Q 1459 3968 1331 4061 
Q 1203 4154 813 4166 
L 813 4326 
L 3059 4326 
z
" transform="scale(0.015625)"/>
     <path id="STIXGeneral-Italic-3c8" d="M 4275 2822 
L 4275 2720 
Q 4096 2688 3955 2579 
Q 3814 2470 3731 2355 
Q 3648 2240 3571 2022 
Q 3494 1805 3465 1689 
Q 3437 1574 3379 1331 
Q 3059 -70 1722 -70 
L 1376 -1312 
L 890 -1312 
L 1235 -70 
L 1178 -70 
Q 736 -70 550 64 
Q 211 307 211 864 
Q 211 1101 332 1517 
Q 454 1933 454 2144 
Q 454 2682 96 2720 
L 102 2822 
L 442 2822 
Q 973 2822 973 2170 
Q 973 1990 861 1472 
Q 749 954 749 768 
Q 749 397 880 230 
Q 1011 64 1274 64 
L 2010 2739 
L 2496 2739 
L 1760 64 
Q 1997 64 2195 198 
Q 2675 538 2867 1395 
Q 2931 1670 2976 1830 
Q 3021 1990 3120 2204 
Q 3219 2419 3340 2534 
Q 3462 2650 3667 2736 
Q 3872 2822 4134 2822 
L 4275 2822 
z
" transform="scale(0.015625)"/>
     <path id="STIXGeneral-Regular-3d" d="M 4077 2048 
L 307 2048 
L 307 2470 
L 4077 2470 
L 4077 2048 
z
M 4077 768 
L 307 768 
L 307 1190 
L 4077 1190 
L 4077 768 
z
" transform="scale(0.015625)"/>
     <path id="STIXGeneral-Regular-5b" d="M 1914 -998 
L 563 -998 
L 563 4237 
L 1914 4237 
L 1914 4077 
L 1382 4077 
Q 1216 4077 1133 4006 
Q 1050 3936 1050 3770 
L 1050 -493 
Q 1050 -838 1382 -838 
L 1914 -838 
L 1914 -998 
z
" transform="scale(0.015625)"/>
     <path id="STIXGeneral-Regular-2212" d="M 3974 1408 
L 410 1408 
L 410 1830 
L 3974 1830 
L 3974 1408 
z
" transform="scale(0.015625)"/>
     <path id="STIXGeneral-Italic-62" d="M 1043 1856 
L 1050 1856 
Q 1370 2387 1654 2604 
Q 1939 2822 2285 2822 
Q 2618 2822 2822 2617 
Q 3027 2413 3027 2054 
Q 3027 1562 2726 1062 
Q 2426 563 1942 246 
Q 1459 -70 979 -70 
Q 685 -70 416 32 
Q 147 134 147 269 
L 147 307 
L 1056 3654 
Q 1114 3885 1114 3955 
Q 1114 4058 1053 4080 
Q 992 4102 704 4115 
L 704 4224 
Q 1184 4282 1683 4371 
L 1715 4339 
L 1581 3814 
L 1043 1856 
z
M 2483 1958 
Q 2483 2509 2035 2509 
Q 1594 2509 1158 1773 
Q 954 1427 826 1008 
Q 698 589 698 294 
Q 698 77 992 77 
Q 1414 77 1779 454 
Q 2074 762 2278 1187 
Q 2483 1613 2483 1958 
z
" transform="scale(0.015625)"/>
     <path id="STIXGeneral-Italic-45" d="M 4058 4179 
L 3859 3194 
L 3718 3206 
Q 3738 3366 3738 3501 
Q 3738 3789 3501 3878 
Q 3264 3968 2509 3968 
Q 2240 3968 2157 3939 
Q 2074 3910 2042 3802 
L 1619 2310 
L 2118 2310 
Q 2541 2310 2681 2412 
Q 2822 2515 3008 2931 
L 3123 2906 
L 2688 1421 
L 2560 1453 
Q 2605 1651 2605 1786 
Q 2605 1939 2560 1984 
Q 2451 2080 2061 2080 
L 1562 2080 
L 1357 1363 
Q 1126 550 1126 429 
Q 1126 211 1632 211 
Q 2458 211 2931 461 
Q 3174 589 3533 1088 
L 3635 1037 
L 3238 0 
L -6 0 
L -6 102 
Q 269 154 352 227 
Q 435 301 512 576 
L 1299 3405 
Q 1370 3642 1370 3814 
Q 1370 3942 1270 3996 
Q 1171 4051 877 4077 
L 877 4179 
L 4058 4179 
z
" transform="scale(0.015625)"/>
     <path id="STIXGeneral-Regular-2c" d="M 531 -902 
L 467 -781 
Q 998 -422 998 -96 
Q 998 -13 909 -13 
Q 883 -13 822 -25 
Q 762 -38 723 -38 
Q 352 -38 352 288 
Q 352 454 457 553 
Q 563 653 736 653 
Q 954 653 1101 496 
Q 1248 339 1248 96 
Q 1248 -198 1053 -473 
Q 858 -749 531 -902 
z
" transform="scale(0.015625)"/>
     <path id="STIXGeneral-Italic-4e" d="M 4653 4179 
L 4653 4077 
Q 4480 4038 4413 4016 
Q 4346 3994 4266 3882 
Q 4186 3770 4144 3635 
Q 4102 3501 4000 3149 
L 3066 -96 
L 2950 -96 
L 1478 3424 
L 749 723 
Q 691 525 691 378 
Q 691 243 790 182 
Q 890 122 1139 102 
L 1139 0 
L -128 0 
L -128 102 
Q 147 141 262 304 
Q 378 467 550 1075 
L 1299 3731 
Q 1152 4077 749 4077 
L 749 4179 
L 1773 4179 
L 3098 986 
L 3776 3469 
Q 3827 3648 3827 3750 
Q 3827 3923 3740 3987 
Q 3654 4051 3386 4077 
L 3386 4179 
L 4653 4179 
z
" transform="scale(0.015625)"/>
     <path id="STIXGeneral-Regular-5d" d="M 1568 -998 
L 218 -998 
L 218 -838 
L 781 -838 
Q 947 -838 1014 -768 
Q 1082 -698 1082 -544 
L 1082 3731 
Q 1082 4077 755 4077 
L 218 4077 
L 218 4237 
L 1568 4237 
L 1568 -998 
z
" transform="scale(0.015625)"/>
     <path id="STIXGeneral-Regular-2f" d="M 1837 4326 
L 378 -90 
L -58 -90 
L 1408 4326 
L 1837 4326 
z
" transform="scale(0.015625)"/>
     <path id="STIXGeneral-Regular-28" d="M 1946 -1030 
L 1869 -1133 
Q 1126 -710 716 32 
Q 307 774 307 1613 
Q 307 3386 1888 4326 
L 1946 4224 
Q 1293 3667 1075 3126 
Q 858 2586 858 1632 
Q 858 685 1082 96 
Q 1306 -493 1946 -1030 
z
" transform="scale(0.015625)"/>
     <path id="STIXGeneral-Regular-32" d="M 3034 877 
L 2688 0 
L 186 0 
L 186 77 
L 1325 1286 
Q 1773 1754 1965 2144 
Q 2157 2534 2157 2950 
Q 2157 3379 1920 3616 
Q 1683 3853 1267 3853 
Q 922 3853 720 3673 
Q 518 3494 326 3021 
L 192 3053 
Q 301 3648 630 3987 
Q 960 4326 1523 4326 
Q 2054 4326 2380 4006 
Q 2707 3686 2707 3200 
Q 2707 2477 1888 1613 
L 832 486 
L 2330 486 
Q 2541 486 2665 569 
Q 2790 653 2944 915 
L 3034 877 
z
" transform="scale(0.015625)"/>
     <path id="STIXGeneral-Regular-2b" d="M 4070 1408 
L 2400 1408 
L 2400 -262 
L 1978 -262 
L 1978 1408 
L 307 1408 
L 307 1830 
L 1978 1830 
L 1978 3501 
L 2400 3501 
L 2400 1830 
L 4070 1830 
L 4070 1408 
z
" transform="scale(0.015625)"/>
     <path id="STIXGeneral-Regular-29" d="M 186 4224 
L 262 4326 
Q 992 3891 1408 3148 
Q 1824 2406 1824 1581 
Q 1824 -166 243 -1133 
L 186 -1030 
Q 845 -486 1059 54 
Q 1274 595 1274 1562 
Q 1274 2534 1059 3120 
Q 845 3706 186 4224 
z
" transform="scale(0.015625)"/>
    </defs>
    <use xlink:href="#STIXGeneral-Bold-4a" transform="translate(0 0.409375)"/>
    <use xlink:href="#STIXGeneral-Italic-3c8" transform="translate(51.543266 -12.81875) scale(0.7)"/>
    <use xlink:href="#STIXGeneral-Regular-3d" transform="translate(111.272633 0.409375)"/>
    <use xlink:href="#STIXGeneral-Regular-5b" transform="translate(194.212614 0.409375)"/>
    <use xlink:href="#STIXGeneral-Regular-2212" transform="translate(227.512602 0.409375)"/>
    <use xlink:href="#STIXGeneral-Italic-62" transform="translate(296.012587 0.409375)"/>
    <use xlink:href="#STIXGeneral-Italic-45" transform="translate(346.012571 -12.81875) scale(0.7)"/>
    <use xlink:href="#STIXGeneral-Regular-2c" transform="translate(393.19194 0.409375)"/>
    <use xlink:href="#STIXGeneral-Italic-62" transform="translate(456.698341 0.409375)"/>
    <use xlink:href="#STIXGeneral-Italic-4e" transform="translate(506.698326 -12.81875) scale(0.7)"/>
    <use xlink:href="#STIXGeneral-Regular-5d" transform="translate(557.797699 0.409375)"/>
    <use xlink:href="#STIXGeneral-Regular-2f" transform="translate(591.097686 0.409375)"/>
    <use xlink:href="#STIXGeneral-Regular-28" transform="translate(618.897674 0.409375)"/>
    <use xlink:href="#STIXGeneral-Italic-62" transform="translate(652.197662 0.409375)"/>
    <use xlink:href="#STIXGeneral-Regular-32" transform="translate(713.453428 35.684375) scale(0.7)"/>
    <use xlink:href="#STIXGeneral-Italic-4e" transform="translate(702.197647 -26.046875) scale(0.7)"/>
    <use xlink:href="#STIXGeneral-Regular-2b" transform="translate(767.737016 0.409375)"/>
    <use xlink:href="#STIXGeneral-Italic-62" transform="translate(850.676997 0.409375)"/>
    <use xlink:href="#STIXGeneral-Regular-32" transform="translate(911.932763 35.684375) scale(0.7)"/>
    <use xlink:href="#STIXGeneral-Italic-45" transform="translate(900.676982 -26.046875) scale(0.7)"/>
    <use xlink:href="#STIXGeneral-Regular-29" transform="translate(951.342127 0.409375)"/>
   </g>
  </g>
 </g>
</svg>
