<?xml version="1.0" encoding="utf-8" standalone="no"?>
<!DOCTYPE svg PUBLIC "-//W3C//DTD SVG 1.1//EN"
  "http://www.w3.org/Graphics/SVG/1.1/DTD/svg11.dtd">
<svg xmlns:xlink="http://www.w3.org/1999/xlink" width="493.228346pt" height="230.4pt" viewBox="0 0 493.228346 230.4" xmlns="http://www.w3.org/2000/svg" version="1.1">
 <metadata>
  <rdf:RDF xmlns:dc="http://purl.org/dc/elements/1.1/" xmlns:cc="http://creativecommons.org/ns#" xmlns:rdf="http://www.w3.org/1999/02/22-rdf-syntax-ns#">
   <cc:Work>
    <dc:type rdf:resource="http://purl.org/dc/dcmitype/StillImage"/>
    <dc:date>2026-09-27T19:00:08.686442</dc:date>
    <dc:format>image/svg+xml</dc:format>
    <dc:creator>
     <cc:Agent>
      <dc:title>Matplotlib v3.8.4, https://matplotlib.org/</dc:title>
     </cc:Agent>
    </dc:creator>
   </cc:Work>
  </rdf:RDF>
 </metadata>
 <defs>
  <style type="text/css">*{stroke-linejoin: round; stroke-linecap: butt}</style>
 </defs>
 <g id="figure_1">
  <g id="patch_1">
   <path d="M 0 230.4 
L 493.228346 230.4 
L 493.228346 0 
L 0 0 
z
" style="fill: #ffffff"/>
  </g>
  <g id="axes_1">
   <g id="patch_2">
    <path d="M 44.390551 186.624 
L 235.248477 186.624 
L 235.248477 52.992 
L 44.390551 52.992 
z
" style="fill: #ffffff"/>
   </g>
   <g id="matplotlib.axis_1">
    <g id="xtick_1">
     <g id="line2d_1">
      <defs>
       <path id="m83bb95f2c0" d="M 0 0 
L 0 3.5 
" style="stroke: #000000; stroke-width: 0.6"/>
      </defs>
      <g>
       <use xlink:href="#m83bb95f2c0" x="122.410346" y="186.624" style="stroke: #000000; stroke-width: 0.6"/>
      </g>
     </g>
     <g id="text_1">
      <!-- $\mathdefault{10^{1}}$ -->
      <g transform="translate(117.020346 198.696813)">
       <text>
        <tspan style="font: 7px 'Liberation Sans'" x="0 3.893066" y="-0.0390625">10</tspan>
        <tspan style="font: 4.9px 'Liberation Sans'" x="7.850937" y="-2.6312499999999996">1</tspan>
       </text>
      </g>
     </g>
    </g>
    <g id="xtick_2">
     <g id="line2d_2">
      <g>
       <use xlink:href="#m83bb95f2c0" x="210.474969" y="186.624" style="stroke: #000000; stroke-width: 0.6"/>
      </g>
     </g>
     <g id="text_2">
      <!-- $\mathdefault{10^{2}}$ -->
      <g transform="translate(205.084969 198.696813)">
       <text>
        <tspan style="font: 7px 'Liberation Sans'" x="0 3.893066" y="-0.984375">10</tspan>
        <tspan style="font: 4.9px 'Liberation Sans'" x="7.850937" y="-3.5765624999999996">2</tspan>
       </text>
      </g>
     </g>
    </g>
    <g id="xtick_3">
     <g id="line2d_3">
      <defs>
       <path id="m7e7b11d3b5" d="M 0 0 
L 0 2 
" style="stroke: #000000; stroke-width: 0.6"/>
      </defs>
      <g>
       <use xlink:href="#m7e7b11d3b5" x="60.855816" y="186.624" style="stroke: #000000; stroke-width: 0.6"/>
      </g>
     </g>
    </g>
    <g id="xtick_4">
     <g id="line2d_4">
      <g>
       <use xlink:href="#m7e7b11d3b5" x="76.363227" y="186.624" style="stroke: #000000; stroke-width: 0.6"/>
      </g>
     </g>
    </g>
    <g id="xtick_5">
     <g id="line2d_5">
      <g>
       <use xlink:href="#m7e7b11d3b5" x="87.365909" y="186.624" style="stroke: #000000; stroke-width: 0.6"/>
      </g>
     </g>
    </g>
    <g id="xtick_6">
     <g id="line2d_6">
      <g>
       <use xlink:href="#m7e7b11d3b5" x="95.900253" y="186.624" style="stroke: #000000; stroke-width: 0.6"/>
      </g>
     </g>
    </g>
    <g id="xtick_7">
     <g id="line2d_7">
      <g>
       <use xlink:href="#m7e7b11d3b5" x="102.87332" y="186.624" style="stroke: #000000; stroke-width: 0.6"/>
      </g>
     </g>
    </g>
    <g id="xtick_8">
     <g id="line2d_8">
      <g>
       <use xlink:href="#m7e7b11d3b5" x="108.768963" y="186.624" style="stroke: #000000; stroke-width: 0.6"/>
      </g>
     </g>
    </g>
    <g id="xtick_9">
     <g id="line2d_9">
      <g>
       <use xlink:href="#m7e7b11d3b5" x="113.876002" y="186.624" style="stroke: #000000; stroke-width: 0.6"/>
      </g>
     </g>
    </g>
    <g id="xtick_10">
     <g id="line2d_10">
      <g>
       <use xlink:href="#m7e7b11d3b5" x="118.38073" y="186.624" style="stroke: #000000; stroke-width: 0.6"/>
      </g>
     </g>
    </g>
    <g id="xtick_11">
     <g id="line2d_11">
      <g>
       <use xlink:href="#m7e7b11d3b5" x="148.920439" y="186.624" style="stroke: #000000; stroke-width: 0.6"/>
      </g>
     </g>
    </g>
    <g id="xtick_12">
     <g id="line2d_12">
      <g>
       <use xlink:href="#m7e7b11d3b5" x="164.427849" y="186.624" style="stroke: #000000; stroke-width: 0.6"/>
      </g>
     </g>
    </g>
    <g id="xtick_13">
     <g id="line2d_13">
      <g>
       <use xlink:href="#m7e7b11d3b5" x="175.430532" y="186.624" style="stroke: #000000; stroke-width: 0.6"/>
      </g>
     </g>
    </g>
    <g id="xtick_14">
     <g id="line2d_14">
      <g>
       <use xlink:href="#m7e7b11d3b5" x="183.964876" y="186.624" style="stroke: #000000; stroke-width: 0.6"/>
      </g>
     </g>
    </g>
    <g id="xtick_15">
     <g id="line2d_15">
      <g>
       <use xlink:href="#m7e7b11d3b5" x="190.937942" y="186.624" style="stroke: #000000; stroke-width: 0.6"/>
      </g>
     </g>
    </g>
    <g id="xtick_16">
     <g id="line2d_16">
      <g>
       <use xlink:href="#m7e7b11d3b5" x="196.833586" y="186.624" style="stroke: #000000; stroke-width: 0.6"/>
      </g>
     </g>
    </g>
    <g id="xtick_17">
     <g id="line2d_17">
      <g>
       <use xlink:href="#m7e7b11d3b5" x="201.940625" y="186.624" style="stroke: #000000; stroke-width: 0.6"/>
      </g>
     </g>
    </g>
    <g id="xtick_18">
     <g id="line2d_18">
      <g>
       <use xlink:href="#m7e7b11d3b5" x="206.445353" y="186.624" style="stroke: #000000; stroke-width: 0.6"/>
      </g>
     </g>
    </g>
    <g id="text_3">
     <text style="font: 8px 'Arial', 'Helvetica', 'Liberation Sans', 'DejaVu Sans', sans-serif; text-anchor: middle" x="139.819514" y="209.946813" transform="rotate(-0 139.819514 209.946813)">Yaw RMSE (°)</text>
    </g>
   </g>
   <g id="matplotlib.axis_2">
    <g id="ytick_1">
     <g id="line2d_19">
      <defs>
       <path id="m7dd4a32496" d="M 0 0 
L -3.5 0 
" style="stroke: #000000; stroke-width: 0.6"/>
      </defs>
      <g>
       <use xlink:href="#m7dd4a32496" x="44.390551" y="186.624" style="stroke: #000000; stroke-width: 0.6"/>
      </g>
     </g>
     <g id="text_4">
      <text style="font: 7px 'Arial', 'Helvetica', 'Liberation Sans', 'DejaVu Sans', sans-serif; text-anchor: end" x="37.390551" y="189.160406" transform="rotate(-0 37.390551 189.160406)">0.0</text>
     </g>
    </g>
    <g id="ytick_2">
     <g id="line2d_20">
      <g>
       <use xlink:href="#m7dd4a32496" x="44.390551" y="160.421647" style="stroke: #000000; stroke-width: 0.6"/>
      </g>
     </g>
     <g id="text_5">
      <text style="font: 7px 'Arial', 'Helvetica', 'Liberation Sans', 'DejaVu Sans', sans-serif; text-anchor: end" x="37.390551" y="162.958053" transform="rotate(-0 37.390551 162.958053)">0.2</text>
     </g>
    </g>
    <g id="ytick_3">
     <g id="line2d_21">
      <g>
       <use xlink:href="#m7dd4a32496" x="44.390551" y="134.219294" style="stroke: #000000; stroke-width: 0.6"/>
      </g>
     </g>
     <g id="text_6">
      <text style="font: 7px 'Arial', 'Helvetica', 'Liberation Sans', 'DejaVu Sans', sans-serif; text-anchor: end" x="37.390551" y="136.7557" transform="rotate(-0 37.390551 136.7557)">0.4</text>
     </g>
    </g>
    <g id="ytick_4">
     <g id="line2d_22">
      <g>
       <use xlink:href="#m7dd4a32496" x="44.390551" y="108.016941" style="stroke: #000000; stroke-width: 0.6"/>
      </g>
     </g>
     <g id="text_7">
      <text style="font: 7px 'Arial', 'Helvetica', 'Liberation Sans', 'DejaVu Sans', sans-serif; text-anchor: end" x="37.390551" y="110.553347" transform="rotate(-0 37.390551 110.553347)">0.6</text>
     </g>
    </g>
    <g id="ytick_5">
     <g id="line2d_23">
      <g>
       <use xlink:href="#m7dd4a32496" x="44.390551" y="81.814588" style="stroke: #000000; stroke-width: 0.6"/>
      </g>
     </g>
     <g id="text_8">
      <text style="font: 7px 'Arial', 'Helvetica', 'Liberation Sans', 'DejaVu Sans', sans-serif; text-anchor: end" x="37.390551" y="84.350994" transform="rotate(-0 37.390551 84.350994)">0.8</text>
     </g>
    </g>
    <g id="ytick_6">
     <g id="line2d_24">
      <g>
       <use xlink:href="#m7dd4a32496" x="44.390551" y="55.612235" style="stroke: #000000; stroke-width: 0.6"/>
      </g>
     </g>
     <g id="text_9">
      <text style="font: 7px 'Arial', 'Helvetica', 'Liberation Sans', 'DejaVu Sans', sans-serif; text-anchor: end" x="37.390551" y="58.148642" transform="rotate(-0 37.390551 58.148642)">1.0</text>
     </g>
    </g>
    <g id="text_10">
     <text style="font: 8px 'Arial', 'Helvetica', 'Liberation Sans', 'DejaVu Sans', sans-serif; text-anchor: middle" x="22.000551" y="119.808" transform="rotate(-90 22.000551 119.808)">ECDF (fraction)</text>
    </g>
   </g>
   <g id="line2d_25">
    <path d="M 58.05687 186.360924 
L 60.030765 186.360924 
L 60.030765 186.097848 
L 60.173714 186.097848 
L 60.173714 185.834773 
L 60.285723 185.834773 
L 60.285723 185.571697 
L 60.666707 185.571697 
L 60.666707 185.308621 
L 61.504081 185.308621 
L 61.504081 185.045545 
L 61.67368 185.045545 
L 61.688874 184.519393 
L 61.851489 184.519393 
L 61.878023 183.993242 
L 62.259077 183.993242 
L 62.336375 183.46709 
L 62.371816 183.46709 
L 62.371816 183.204014 
L 62.718696 183.204014 
L 62.718696 182.940938 
L 62.927145 182.940938 
L 62.927145 182.677863 
L 63.05838 182.677863 
L 63.05838 182.414787 
L 63.359447 182.414787 
L 63.359447 180.31018 
L 63.559236 180.31018 
L 63.593063 179.520953 
L 63.757223 179.520953 
L 63.757223 179.257877 
L 63.914785 179.257877 
L 64.007673 176.100967 
L 64.065113 176.100967 
L 64.173711 175.574815 
L 64.18273 175.574815 
L 64.250697 174.785588 
L 64.30828 174.785588 
L 64.376089 173.99636 
L 64.47794 173.99636 
L 64.564732 173.207133 
L 64.644942 173.207133 
L 64.736045 171.891753 
L 64.811542 171.891753 
L 64.920723 162.684099 
L 64.952339 162.684099 
L 65.06129 87.444411 
L 65.065572 87.444411 
L 65.141062 84.550577 
L 65.203813 84.550577 
L 65.313533 82.44597 
L 65.331573 82.44597 
L 65.388617 81.656743 
L 65.450187 81.656743 
L 65.538991 80.604439 
L 65.610175 80.604439 
L 65.708082 78.762909 
L 65.745559 78.762909 
L 65.850019 77.184454 
L 65.915323 77.184454 
L 65.995551 76.13215 
L 66.030427 76.13215 
L 66.037477 75.605999 
L 66.142927 75.605999 
L 66.234964 75.079847 
L 66.297762 75.079847 
L 66.297762 74.816771 
L 66.52246 74.816771 
L 66.605305 74.290619 
L 66.671347 74.290619 
L 66.693411 73.764468 
L 66.912024 73.764468 
L 67.014378 73.238316 
L 67.082123 73.238316 
L 67.162459 69.81833 
L 67.241152 69.81833 
L 67.241152 69.555254 
L 67.475831 69.555254 
L 67.570673 68.766027 
L 67.642858 68.766027 
L 67.716458 68.239875 
L 67.766675 68.239875 
L 67.79835 67.713724 
L 68.222336 67.713724 
L 68.222336 67.450648 
L 68.398152 67.450648 
L 68.398152 67.187572 
L 68.549986 67.187572 
L 68.612706 66.66142 
L 69.204925 66.66142 
L 69.245728 66.135269 
L 69.55423 66.135269 
L 69.620036 65.346041 
L 69.744081 65.346041 
L 69.744081 65.082965 
L 70.953288 65.082965 
L 70.953288 64.819889 
L 71.595042 64.819889 
L 71.595042 64.556814 
L 72.559016 64.556814 
L 72.559016 64.293738 
L 73.046523 64.293738 
L 73.046523 64.030662 
L 73.227334 64.030662 
L 73.251232 63.50451 
L 74.768488 63.50451 
L 74.768488 63.241434 
L 76.22114 63.241434 
L 76.22114 62.978359 
L 76.932595 62.978359 
L 76.932595 62.715283 
L 80.183014 62.715283 
L 80.183014 62.452207 
L 80.796597 62.452207 
L 80.796597 62.189131 
L 80.964193 62.189131 
L 80.964193 61.926055 
L 86.309326 61.926055 
L 86.309326 61.662979 
L 87.03399 61.662979 
L 87.03399 61.399904 
L 96.01779 61.399904 
L 96.01779 61.136828 
L 100.293986 61.136828 
L 100.293986 60.873752 
L 108.587069 60.873752 
L 108.587069 60.610676 
L 110.489304 60.610676 
L 110.489304 60.3476 
L 114.856267 60.3476 
L 114.856267 60.084524 
L 122.308623 60.084524 
L 122.308623 59.821449 
L 125.185265 59.821449 
L 125.185265 59.295297 
L 125.457094 59.295297 
L 125.457094 59.032221 
L 128.246505 59.032221 
L 128.246505 58.769145 
L 128.685676 58.769145 
L 128.74499 58.242994 
L 134.141301 58.242994 
L 134.141301 57.979918 
L 135.043706 57.979918 
L 135.043706 57.716842 
L 143.58077 57.716842 
L 143.58077 57.453766 
L 143.939621 57.453766 
L 143.939621 57.19069 
L 148.302095 57.19069 
L 148.302095 56.927614 
L 158.47603 56.927614 
L 158.47603 56.664539 
L 158.719288 56.664539 
L 158.719288 56.401463 
L 185.468974 56.401463 
L 185.468974 56.138387 
L 206.286004 56.138387 
L 206.286004 55.875311 
L 226.573116 55.875311 
L 226.573116 55.612235 
L 226.573116 55.612235 
" clip-path="url(#p594f318d41)" style="fill: none; stroke-dasharray: 3.7,1.6; stroke-dashoffset: 0; stroke: #e69f00"/>
   </g>
   <g id="line2d_26">
    <path d="M 55.304066 186.368118 
L 56.067437 186.368118 
L 56.067437 186.112235 
L 56.344439 186.112235 
L 56.344439 185.856353 
L 56.503623 185.856353 
L 56.503623 185.600471 
L 57.475234 185.600471 
L 57.478525 185.088706 
L 57.802122 185.088706 
L 57.856519 184.576941 
L 57.922309 184.576941 
L 57.922309 184.321059 
L 58.051068 184.321059 
L 58.099258 183.809294 
L 58.179189 183.809294 
L 58.182034 183.297529 
L 58.30871 183.297529 
L 58.325612 182.785765 
L 58.445506 182.785765 
L 58.556153 181.250471 
L 58.56423 181.250471 
L 58.658296 175.621059 
L 58.680546 175.621059 
L 58.767126 174.085765 
L 58.809637 174.085765 
L 58.90949 170.247529 
L 58.924858 170.247529 
L 59.03504 161.291647 
L 59.045891 161.291647 
L 59.156981 154.638706 
L 59.158826 154.638706 
L 59.257588 93.482824 
L 59.276183 93.482824 
L 59.384914 90.156353 
L 59.392023 90.156353 
L 59.497762 85.550471 
L 59.516705 85.550471 
L 59.621974 83.759294 
L 59.646892 83.759294 
L 59.740736 82.479882 
L 59.768179 82.479882 
L 59.851289 80.688706 
L 59.957772 80.688706 
L 60.043538 80.176941 
L 60.073853 80.176941 
L 60.137157 79.153412 
L 60.204295 79.153412 
L 60.262739 78.129882 
L 60.331667 78.129882 
L 60.371507 77.362235 
L 60.487974 77.362235 
L 60.50606 76.850471 
L 60.716492 76.850471 
L 60.809527 76.082824 
L 60.953264 76.082824 
L 61.059206 75.571059 
L 61.159899 75.571059 
L 61.159899 75.315176 
L 61.290303 75.315176 
L 61.399145 73.524 
L 61.464282 73.524 
L 61.5677 70.453412 
L 61.608081 70.453412 
L 61.608081 70.197529 
L 61.766486 70.197529 
L 61.794482 69.685765 
L 61.992976 69.685765 
L 62.076623 69.174 
L 62.652754 69.174 
L 62.652754 68.918118 
L 62.991199 68.918118 
L 62.991199 68.662235 
L 63.666623 68.662235 
L 63.666623 68.406353 
L 65.115053 68.406353 
L 65.115053 68.150471 
L 65.294472 68.150471 
L 65.294472 67.894588 
L 66.634516 67.894588 
L 66.634516 67.638706 
L 66.759764 67.638706 
L 66.759764 67.382824 
L 67.37683 67.382824 
L 67.37683 67.126941 
L 67.627907 67.126941 
L 67.627907 66.871059 
L 68.009622 66.871059 
L 68.009622 66.615176 
L 68.143649 66.615176 
L 68.143649 66.359294 
L 69.862858 66.359294 
L 69.862858 66.103412 
L 70.952964 66.103412 
L 70.952964 65.847529 
L 72.036918 65.847529 
L 72.070227 65.335765 
L 75.674839 65.335765 
L 75.674839 65.079882 
L 76.467999 65.079882 
L 76.467999 64.824 
L 76.82492 64.824 
L 76.82492 64.568118 
L 84.274372 64.568118 
L 84.274372 64.312235 
L 84.402762 64.312235 
L 84.402762 64.056353 
L 85.610073 64.056353 
L 85.610073 63.800471 
L 86.69708 63.800471 
L 86.69708 63.544588 
L 88.569939 63.544588 
L 88.569939 63.288706 
L 97.241134 63.288706 
L 97.241134 63.032824 
L 105.675157 63.032824 
L 105.675157 62.776941 
L 109.80818 62.776941 
L 109.80818 62.521059 
L 118.325773 62.521059 
L 118.325773 62.265176 
L 123.664989 62.265176 
L 123.664989 62.009294 
L 168.75048 62.009294 
L 168.75048 61.753412 
L 180.68034 61.753412 
L 180.68034 61.497529 
L 182.469367 61.497529 
L 182.469367 61.241647 
L 186.093593 61.241647 
L 186.148378 60.474 
L 204.689446 60.474 
L 204.689446 59.962235 
L 204.817343 59.962235 
L 204.817343 59.450471 
L 207.442712 59.450471 
L 207.528496 58.682824 
L 208.251972 58.682824 
L 208.251972 58.171059 
L 208.542325 58.171059 
L 208.542325 57.659294 
L 209.758364 57.659294 
L 209.758364 57.403412 
L 211.613002 57.403412 
L 211.613002 57.147529 
L 216.036511 57.147529 
L 216.036511 56.891647 
L 218.919312 56.891647 
L 218.919312 56.379882 
L 219.269348 56.379882 
L 219.269348 56.124 
L 220.748428 56.124 
L 220.748428 55.612235 
L 220.748428 55.612235 
" clip-path="url(#p594f318d41)" style="fill: none; stroke-dasharray: 1,1.65; stroke-dashoffset: 0; stroke: #56b4e9"/>
   </g>
   <g id="line2d_27">
    <path d="M 54.573561 186.368616 
L 55.32756 186.368616 
L 55.32756 186.113233 
L 55.562563 186.113233 
L 55.562563 185.857849 
L 55.772257 185.857849 
L 55.772257 185.602466 
L 56.825434 185.602466 
L 56.883611 185.091699 
L 56.956351 185.091699 
L 56.956351 184.836315 
L 57.112495 184.836315 
L 57.112495 184.580932 
L 57.265117 184.580932 
L 57.329528 183.304014 
L 57.4189 183.304014 
L 57.454931 182.537863 
L 57.549963 182.537863 
L 57.613137 180.750178 
L 57.664061 180.750178 
L 57.763931 179.47326 
L 57.804407 179.47326 
L 57.874387 176.408658 
L 57.939275 176.408658 
L 58.042234 172.322521 
L 58.059355 172.322521 
L 58.162045 169.002535 
L 58.176452 169.002535 
L 58.240977 167.21485 
L 58.330918 167.21485 
L 58.43794 163.894863 
L 58.449959 163.894863 
L 58.560952 150.104151 
L 58.566145 150.104151 
L 58.676319 96.473604 
L 58.685991 96.473604 
L 58.78522 89.067481 
L 58.801871 89.067481 
L 58.906357 86.513646 
L 58.939755 86.513646 
L 59.025067 83.95981 
L 59.055083 83.95981 
L 59.165122 81.661358 
L 59.197789 81.661358 
L 59.306052 80.38444 
L 59.317078 80.38444 
L 59.402429 79.362906 
L 59.448046 79.362906 
L 59.532257 78.852139 
L 59.563031 78.852139 
L 59.661539 78.085988 
L 59.703756 78.085988 
L 59.798913 77.064454 
L 59.854678 77.064454 
L 59.854678 76.809071 
L 59.975525 76.809071 
L 59.984069 76.298303 
L 60.089409 76.298303 
L 60.116478 75.787536 
L 60.218466 75.787536 
L 60.309765 75.021386 
L 60.398893 75.021386 
L 60.467914 74.510619 
L 60.602782 74.510619 
L 60.602782 74.255235 
L 60.719546 74.255235 
L 60.828928 72.212166 
L 60.851112 72.212166 
L 60.945759 69.402947 
L 60.997446 69.402947 
L 61.070378 68.636797 
L 61.376206 68.636797 
L 61.376206 68.381413 
L 61.619526 68.381413 
L 61.646433 67.870646 
L 62.047796 67.870646 
L 62.047796 67.615262 
L 62.180229 67.615262 
L 62.180229 67.359879 
L 62.336002 67.359879 
L 62.336002 67.104495 
L 62.677159 67.104495 
L 62.677159 66.849112 
L 64.104249 66.849112 
L 64.104249 66.593728 
L 64.437547 66.593728 
L 64.437547 66.338345 
L 64.718241 66.338345 
L 64.718241 66.082961 
L 65.640629 66.082961 
L 65.640629 65.827578 
L 65.877984 65.827578 
L 65.877984 65.572194 
L 66.089223 65.572194 
L 66.089223 65.31681 
L 66.247281 65.31681 
L 66.247281 65.061427 
L 67.272304 65.061427 
L 67.374686 64.55066 
L 67.578715 64.55066 
L 67.578715 64.295276 
L 68.720207 64.295276 
L 68.720207 64.039893 
L 70.159754 64.039893 
L 70.20918 63.529126 
L 70.335516 63.529126 
L 70.340616 63.018358 
L 70.462335 63.018358 
L 70.462335 62.762975 
L 70.579603 62.762975 
L 70.579603 62.507591 
L 71.70377 62.507591 
L 71.70377 62.252208 
L 74.82369 62.252208 
L 74.82369 61.996824 
L 76.419516 61.996824 
L 76.419516 61.741441 
L 76.861382 61.741441 
L 76.891051 61.230674 
L 83.243175 61.230674 
L 83.243175 60.97529 
L 84.358863 60.97529 
L 84.358863 60.719906 
L 84.514505 60.719906 
L 84.514505 60.464523 
L 85.259049 60.464523 
L 85.259049 60.209139 
L 88.240678 60.209139 
L 88.240678 59.953756 
L 104.812914 59.953756 
L 104.812914 59.698372 
L 113.459883 59.698372 
L 113.459883 59.442989 
L 118.869647 59.442989 
L 118.869647 59.187605 
L 129.569858 59.187605 
L 129.582115 58.676838 
L 129.758699 58.676838 
L 129.758699 58.421454 
L 162.165208 58.421454 
L 162.165208 58.166071 
L 164.17013 58.166071 
L 164.17013 57.910687 
L 186.326925 57.910687 
L 186.326925 57.655304 
L 203.81139 57.655304 
L 203.907993 57.144537 
L 214.95981 57.144537 
L 214.967519 56.63377 
L 221.211677 56.63377 
L 221.23603 56.123002 
L 226.291842 56.123002 
L 226.299926 55.612235 
L 226.299926 55.612235 
" clip-path="url(#p594f318d41)" style="fill: none; stroke-dasharray: 6.4,1.6,1,1.6; stroke-dashoffset: 0; stroke: #cc79a7"/>
   </g>
   <g id="line2d_28">
    <path d="M 53.065911 186.371569 
L 54.69725 186.371569 
L 54.69725 186.119138 
L 55.409426 186.119138 
L 55.409426 185.866707 
L 55.687333 185.866707 
L 55.791598 185.109413 
L 55.805593 185.109413 
L 55.805593 184.856982 
L 56.292066 184.856982 
L 56.38917 184.35212 
L 56.550778 184.35212 
L 56.550778 184.099689 
L 56.6644 184.099689 
L 56.6644 183.847257 
L 56.939261 183.847257 
L 56.939261 183.594826 
L 57.08064 183.594826 
L 57.157944 183.089964 
L 57.358264 183.089964 
L 57.399314 182.080239 
L 57.487758 182.080239 
L 57.555074 181.575377 
L 57.62683 181.575377 
L 57.728601 180.313221 
L 57.774261 180.313221 
L 57.880805 178.798634 
L 57.906442 178.798634 
L 58.013186 172.992718 
L 58.018077 172.992718 
L 58.116293 171.730562 
L 58.131411 171.730562 
L 58.225715 167.186802 
L 58.282519 167.186802 
L 58.387161 165.167353 
L 58.393901 165.167353 
L 58.493867 154.817676 
L 58.508399 154.817676 
L 58.619417 102.81686 
L 58.619522 102.81686 
L 58.730256 89.438009 
L 58.731941 89.438009 
L 58.825507 86.156404 
L 58.856212 86.156404 
L 58.960926 81.360212 
L 59.003064 81.360212 
L 59.086937 80.098056 
L 59.120559 80.098056 
L 59.197434 78.58347 
L 59.233891 78.58347 
L 59.302129 77.321314 
L 59.347817 77.321314 
L 59.409197 76.816452 
L 59.555284 76.816452 
L 59.60041 76.311589 
L 59.760949 76.311589 
L 59.847165 75.301865 
L 59.969306 75.301865 
L 59.974911 74.797002 
L 60.103609 74.797002 
L 60.103609 74.544571 
L 60.266025 74.544571 
L 60.2872 74.039709 
L 60.394532 74.039709 
L 60.478794 73.282416 
L 60.506383 73.282416 
L 60.506383 73.029984 
L 60.647922 73.029984 
L 60.741693 72.272691 
L 60.77786 72.272691 
L 60.878048 70.758104 
L 60.918419 70.758104 
L 60.982604 68.233793 
L 61.330464 68.233793 
L 61.330464 67.981361 
L 61.519588 67.981361 
L 61.610566 67.224068 
L 61.637457 67.224068 
L 61.637457 66.971637 
L 61.828394 66.971637 
L 61.914979 66.214343 
L 62.252417 66.214343 
L 62.252417 65.961912 
L 62.458125 65.961912 
L 62.534447 65.204619 
L 62.678205 65.204619 
L 62.678205 64.952188 
L 64.461676 64.952188 
L 64.544923 64.447325 
L 64.618707 64.447325 
L 64.618707 64.194894 
L 64.737387 64.194894 
L 64.753586 63.690032 
L 64.873725 63.690032 
L 64.873725 63.437601 
L 66.38648 63.437601 
L 66.38648 63.18517 
L 67.359333 63.18517 
L 67.359333 62.932739 
L 67.653208 62.932739 
L 67.653208 62.680307 
L 68.458955 62.680307 
L 68.508142 62.175445 
L 69.057159 62.175445 
L 69.057159 61.923014 
L 70.192752 61.923014 
L 70.192752 61.670583 
L 70.759748 61.670583 
L 70.759748 61.418152 
L 71.167914 61.418152 
L 71.167914 61.165721 
L 71.517602 61.165721 
L 71.550957 60.660858 
L 72.227253 60.660858 
L 72.313901 60.155996 
L 72.382148 60.155996 
L 72.382148 59.903565 
L 76.038612 59.903565 
L 76.076208 59.398702 
L 87.740372 59.398702 
L 87.740372 59.146271 
L 88.216724 59.146271 
L 88.216724 58.89384 
L 89.010175 58.89384 
L 89.0464 58.388978 
L 104.233286 58.388978 
L 104.233286 58.136547 
L 111.216531 58.136547 
L 111.216531 57.884116 
L 118.473142 57.884116 
L 118.473142 57.631684 
L 123.715877 57.631684 
L 123.715877 57.379253 
L 143.473043 57.379253 
L 143.473043 57.126822 
L 143.671499 57.126822 
L 143.671499 56.874391 
L 181.318468 56.874391 
L 181.318468 56.62196 
L 188.17454 56.62196 
L 188.193014 56.117098 
L 196.30938 56.117098 
L 196.30938 55.864666 
L 196.432599 55.864666 
L 196.432599 55.612235 
L 196.432599 55.612235 
" clip-path="url(#p594f318d41)" style="fill: none; stroke: #d55e00; stroke-linecap: square"/>
   </g>
   <g id="patch_3">
    <path d="M 44.390551 186.624 
L 44.390551 52.992 
" style="fill: none; stroke: #000000; stroke-width: 0.6; stroke-linejoin: miter; stroke-linecap: square"/>
   </g>
   <g id="patch_4">
    <path d="M 44.390551 186.624 
L 235.248477 186.624 
" style="fill: none; stroke: #000000; stroke-width: 0.6; stroke-linejoin: miter; stroke-linecap: square"/>
   </g>
   <g id="text_11">
    <text style="font: 700 9px 'Arial', 'Helvetica', 'Liberation Sans', 'DejaVu Sans', sans-serif; text-anchor: start" x="17.670442" y="48.98304" transform="rotate(-0 17.670442 48.98304)">(a)</text>
   </g>
  </g>
  <g id="axes_2">
   <g id="patch_5">
    <path d="M 292.505854 186.624 
L 483.36378 186.624 
L 483.36378 52.992 
L 292.505854 52.992 
z
" style="fill: #ffffff"/>
   </g>
   <g id="matplotlib.axis_3">
    <g id="xtick_19">
     <g id="line2d_29">
      <g>
       <use xlink:href="#m83bb95f2c0" x="304.618106" y="186.624" style="stroke: #000000; stroke-width: 0.6"/>
      </g>
     </g>
     <g id="text_12">
      <!-- $\mathdefault{10^{-1}}$ -->
      <g transform="translate(297.793106 198.696813)">
       <text>
        <tspan style="font: 7px 'Liberation Sans'" x="0 3.893066" y="-0.0390625">10</tspan>
        <tspan style="font: 4.9px 'Liberation Sans'" x="7.850937 10.712461" y="-2.6312499999999996">−1</tspan>
       </text>
      </g>
     </g>
    </g>
    <g id="xtick_20">
     <g id="line2d_30">
      <g>
       <use xlink:href="#m83bb95f2c0" x="379.063273" y="186.624" style="stroke: #000000; stroke-width: 0.6"/>
      </g>
     </g>
     <g id="text_13">
      <!-- $\mathdefault{10^{0}}$ -->
      <g transform="translate(373.673273 198.696813)">
       <text>
        <tspan style="font: 7px 'Liberation Sans'" x="0 3.893066" y="-0.984375">10</tspan>
        <tspan style="font: 4.9px 'Liberation Sans'" x="7.850937" y="-3.5765624999999996">0</tspan>
       </text>
      </g>
     </g>
    </g>
    <g id="xtick_21">
     <g id="line2d_31">
      <g>
       <use xlink:href="#m83bb95f2c0" x="453.508441" y="186.624" style="stroke: #000000; stroke-width: 0.6"/>
      </g>
     </g>
     <g id="text_14">
      <!-- $\mathdefault{10^{1}}$ -->
      <g transform="translate(448.118441 198.696813)">
       <text>
        <tspan style="font: 7px 'Liberation Sans'" x="0 3.893066" y="-0.0390625">10</tspan>
        <tspan style="font: 4.9px 'Liberation Sans'" x="7.850937" y="-2.6312499999999996">1</tspan>
       </text>
      </g>
     </g>
    </g>
    <g id="xtick_22">
     <g id="line2d_32">
      <g>
       <use xlink:href="#m7e7b11d3b5" x="293.086403" y="186.624" style="stroke: #000000; stroke-width: 0.6"/>
      </g>
     </g>
    </g>
    <g id="xtick_23">
     <g id="line2d_33">
      <g>
       <use xlink:href="#m7e7b11d3b5" x="297.403623" y="186.624" style="stroke: #000000; stroke-width: 0.6"/>
      </g>
     </g>
    </g>
    <g id="xtick_24">
     <g id="line2d_34">
      <g>
       <use xlink:href="#m7e7b11d3b5" x="301.211681" y="186.624" style="stroke: #000000; stroke-width: 0.6"/>
      </g>
     </g>
    </g>
    <g id="xtick_25">
     <g id="line2d_35">
      <g>
       <use xlink:href="#m7e7b11d3b5" x="327.028334" y="186.624" style="stroke: #000000; stroke-width: 0.6"/>
      </g>
     </g>
    </g>
    <g id="xtick_26">
     <g id="line2d_36">
      <g>
       <use xlink:href="#m7e7b11d3b5" x="340.137477" y="186.624" style="stroke: #000000; stroke-width: 0.6"/>
      </g>
     </g>
    </g>
    <g id="xtick_27">
     <g id="line2d_37">
      <g>
       <use xlink:href="#m7e7b11d3b5" x="349.438562" y="186.624" style="stroke: #000000; stroke-width: 0.6"/>
      </g>
     </g>
    </g>
    <g id="xtick_28">
     <g id="line2d_38">
      <g>
       <use xlink:href="#m7e7b11d3b5" x="356.653045" y="186.624" style="stroke: #000000; stroke-width: 0.6"/>
      </g>
     </g>
    </g>
    <g id="xtick_29">
     <g id="line2d_39">
      <g>
       <use xlink:href="#m7e7b11d3b5" x="362.547706" y="186.624" style="stroke: #000000; stroke-width: 0.6"/>
      </g>
     </g>
    </g>
    <g id="xtick_30">
     <g id="line2d_40">
      <g>
       <use xlink:href="#m7e7b11d3b5" x="367.531571" y="186.624" style="stroke: #000000; stroke-width: 0.6"/>
      </g>
     </g>
    </g>
    <g id="xtick_31">
     <g id="line2d_41">
      <g>
       <use xlink:href="#m7e7b11d3b5" x="371.848791" y="186.624" style="stroke: #000000; stroke-width: 0.6"/>
      </g>
     </g>
    </g>
    <g id="xtick_32">
     <g id="line2d_42">
      <g>
       <use xlink:href="#m7e7b11d3b5" x="375.656849" y="186.624" style="stroke: #000000; stroke-width: 0.6"/>
      </g>
     </g>
    </g>
    <g id="xtick_33">
     <g id="line2d_43">
      <g>
       <use xlink:href="#m7e7b11d3b5" x="401.473502" y="186.624" style="stroke: #000000; stroke-width: 0.6"/>
      </g>
     </g>
    </g>
    <g id="xtick_34">
     <g id="line2d_44">
      <g>
       <use xlink:href="#m7e7b11d3b5" x="414.582645" y="186.624" style="stroke: #000000; stroke-width: 0.6"/>
      </g>
     </g>
    </g>
    <g id="xtick_35">
     <g id="line2d_45">
      <g>
       <use xlink:href="#m7e7b11d3b5" x="423.88373" y="186.624" style="stroke: #000000; stroke-width: 0.6"/>
      </g>
     </g>
    </g>
    <g id="xtick_36">
     <g id="line2d_46">
      <g>
       <use xlink:href="#m7e7b11d3b5" x="431.098212" y="186.624" style="stroke: #000000; stroke-width: 0.6"/>
      </g>
     </g>
    </g>
    <g id="xtick_37">
     <g id="line2d_47">
      <g>
       <use xlink:href="#m7e7b11d3b5" x="436.992873" y="186.624" style="stroke: #000000; stroke-width: 0.6"/>
      </g>
     </g>
    </g>
    <g id="xtick_38">
     <g id="line2d_48">
      <g>
       <use xlink:href="#m7e7b11d3b5" x="441.976738" y="186.624" style="stroke: #000000; stroke-width: 0.6"/>
      </g>
     </g>
    </g>
    <g id="xtick_39">
     <g id="line2d_49">
      <g>
       <use xlink:href="#m7e7b11d3b5" x="446.293958" y="186.624" style="stroke: #000000; stroke-width: 0.6"/>
      </g>
     </g>
    </g>
    <g id="xtick_40">
     <g id="line2d_50">
      <g>
       <use xlink:href="#m7e7b11d3b5" x="450.102017" y="186.624" style="stroke: #000000; stroke-width: 0.6"/>
      </g>
     </g>
    </g>
    <g id="xtick_41">
     <g id="line2d_51">
      <g>
       <use xlink:href="#m7e7b11d3b5" x="475.918669" y="186.624" style="stroke: #000000; stroke-width: 0.6"/>
      </g>
     </g>
    </g>
    <g id="text_15">
     <text style="font: 8px 'Arial', 'Helvetica', 'Liberation Sans', 'DejaVu Sans', sans-serif; text-anchor: middle" x="387.934817" y="209.946813" transform="rotate(-0 387.934817 209.946813)">Horizontal RMSE (m)</text>
    </g>
   </g>
   <g id="matplotlib.axis_4">
    <g id="ytick_7">
     <g id="line2d_52">
      <g>
       <use xlink:href="#m7dd4a32496" x="292.505854" y="186.624" style="stroke: #000000; stroke-width: 0.6"/>
      </g>
     </g>
     <g id="text_16">
      <text style="font: 7px 'Arial', 'Helvetica', 'Liberation Sans', 'DejaVu Sans', sans-serif; text-anchor: end" x="285.505854" y="189.160406" transform="rotate(-0 285.505854 189.160406)">0.0</text>
     </g>
    </g>
    <g id="ytick_8">
     <g id="line2d_53">
      <g>
       <use xlink:href="#m7dd4a32496" x="292.505854" y="160.421647" style="stroke: #000000; stroke-width: 0.6"/>
      </g>
     </g>
     <g id="text_17">
      <text style="font: 7px 'Arial', 'Helvetica', 'Liberation Sans', 'DejaVu Sans', sans-serif; text-anchor: end" x="285.505854" y="162.958053" transform="rotate(-0 285.505854 162.958053)">0.2</text>
     </g>
    </g>
    <g id="ytick_9">
     <g id="line2d_54">
      <g>
       <use xlink:href="#m7dd4a32496" x="292.505854" y="134.219294" style="stroke: #000000; stroke-width: 0.6"/>
      </g>
     </g>
     <g id="text_18">
      <text style="font: 7px 'Arial', 'Helvetica', 'Liberation Sans', 'DejaVu Sans', sans-serif; text-anchor: end" x="285.505854" y="136.7557" transform="rotate(-0 285.505854 136.7557)">0.4</text>
     </g>
    </g>
    <g id="ytick_10">
     <g id="line2d_55">
      <g>
       <use xlink:href="#m7dd4a32496" x="292.505854" y="108.016941" style="stroke: #000000; stroke-width: 0.6"/>
      </g>
     </g>
     <g id="text_19">
      <text style="font: 7px 'Arial', 'Helvetica', 'Liberation Sans', 'DejaVu Sans', sans-serif; text-anchor: end" x="285.505854" y="110.553347" transform="rotate(-0 285.505854 110.553347)">0.6</text>
     </g>
    </g>
    <g id="ytick_11">
     <g id="line2d_56">
      <g>
       <use xlink:href="#m7dd4a32496" x="292.505854" y="81.814588" style="stroke: #000000; stroke-width: 0.6"/>
      </g>
     </g>
     <g id="text_20">
      <text style="font: 7px 'Arial', 'Helvetica', 'Liberation Sans', 'DejaVu Sans', sans-serif; text-anchor: end" x="285.505854" y="84.350994" transform="rotate(-0 285.505854 84.350994)">0.8</text>
     </g>
    </g>
    <g id="ytick_12">
     <g id="line2d_57">
      <g>
       <use xlink:href="#m7dd4a32496" x="292.505854" y="55.612235" style="stroke: #000000; stroke-width: 0.6"/>
      </g>
     </g>
     <g id="text_21">
      <text style="font: 7px 'Arial', 'Helvetica', 'Liberation Sans', 'DejaVu Sans', sans-serif; text-anchor: end" x="285.505854" y="58.148642" transform="rotate(-0 285.505854 58.148642)">1.0</text>
     </g>
    </g>
    <g id="text_22">
     <text style="font: 8px 'Arial', 'Helvetica', 'Liberation Sans', 'DejaVu Sans', sans-serif; text-anchor: middle" x="270.115854" y="119.808" transform="rotate(-90 270.115854 119.808)">ECDF (fraction)</text>
    </g>
   </g>
   <g id="line2d_58">
    <path d="M 302.00863 186.360924 
L 304.247145 186.360924 
L 304.247145 183.993242 
L 304.414043 183.993242 
L 304.414043 183.730166 
L 304.813101 183.730166 
L 304.923038 182.414787 
L 305.017069 182.414787 
L 305.120905 180.31018 
L 305.128213 180.31018 
L 305.238641 123.222724 
L 305.239893 123.222724 
L 305.349089 117.698132 
L 305.363668 117.698132 
L 305.472807 116.645828 
L 305.725966 116.645828 
L 305.725966 116.382753 
L 306.243297 116.382753 
L 306.243297 114.01507 
L 306.43099 114.01507 
L 306.43099 113.751994 
L 306.594848 113.751994 
L 306.594848 113.488918 
L 308.871407 113.488918 
L 308.871407 111.121236 
L 309.056992 111.121236 
L 309.056992 110.85816 
L 309.647659 110.85816 
L 309.670479 110.332009 
L 310.030286 110.332009 
L 310.030286 110.068933 
L 310.329209 110.068933 
L 310.329209 109.805857 
L 310.722172 109.805857 
L 310.802626 109.279705 
L 311.285578 109.279705 
L 311.385622 108.490478 
L 311.483492 108.490478 
L 311.483492 108.227402 
L 312.252577 108.227402 
L 312.252577 107.964326 
L 312.387889 107.964326 
L 312.387889 105.859719 
L 312.833206 105.859719 
L 312.833206 105.596644 
L 313.508512 105.596644 
L 313.508512 100.861279 
L 315.165539 100.861279 
L 315.165539 100.598203 
L 316.402854 100.598203 
L 316.402854 100.335127 
L 316.877036 100.335127 
L 316.877036 100.072051 
L 317.256959 100.072051 
L 317.256959 99.808975 
L 317.854539 99.808975 
L 317.854539 99.545899 
L 318.846669 99.545899 
L 318.846669 99.282824 
L 320.777135 99.282824 
L 320.777135 99.019748 
L 324.612807 99.019748 
L 324.612807 98.756672 
L 324.971427 98.756672 
L 324.971427 98.493596 
L 326.692703 98.493596 
L 326.692703 98.23052 
L 327.074656 98.23052 
L 327.074656 97.967444 
L 329.705838 97.967444 
L 329.705838 97.704369 
L 330.044305 97.704369 
L 330.044305 97.441293 
L 331.077462 97.441293 
L 331.077462 97.178217 
L 331.917567 97.178217 
L 331.917567 95.07361 
L 332.042365 95.07361 
L 332.102575 94.547459 
L 332.47502 94.547459 
L 332.47502 94.284383 
L 332.629668 94.284383 
L 332.629668 94.021307 
L 332.805925 94.021307 
L 332.823711 93.232079 
L 333.503389 93.232079 
L 333.549944 92.705928 
L 334.086363 92.705928 
L 334.086363 92.442852 
L 334.223528 92.442852 
L 334.223528 92.179776 
L 334.902217 92.179776 
L 334.902217 91.9167 
L 335.200909 91.9167 
L 335.200909 91.653624 
L 335.810806 91.653624 
L 335.810806 91.390549 
L 336.568909 91.390549 
L 336.591586 90.864397 
L 336.888699 90.864397 
L 336.888699 90.601321 
L 340.56901 90.601321 
L 340.655029 90.075169 
L 340.996836 90.075169 
L 341.094369 89.549018 
L 341.115427 89.549018 
L 341.115427 89.285942 
L 341.359061 89.285942 
L 341.359061 89.022866 
L 341.957752 89.022866 
L 341.957752 88.75979 
L 342.102614 88.75979 
L 342.102614 88.496714 
L 342.425175 88.496714 
L 342.425175 88.233639 
L 342.619785 88.233639 
L 342.619785 87.970563 
L 342.989092 87.970563 
L 342.989092 87.707487 
L 344.915624 87.707487 
L 344.915624 87.444411 
L 345.183695 87.444411 
L 345.183695 87.181335 
L 345.389349 87.181335 
L 345.389349 86.918259 
L 347.582445 86.918259 
L 347.582445 86.655184 
L 349.74361 86.655184 
L 349.74361 86.392108 
L 352.243454 86.392108 
L 352.243454 86.129032 
L 358.202237 86.129032 
L 358.202237 85.865956 
L 361.824711 85.865956 
L 361.824711 85.60288 
L 369.422854 85.60288 
L 369.423044 85.076729 
L 369.590199 85.076729 
L 369.671627 83.761349 
L 369.717241 83.761349 
L 369.735326 82.972122 
L 370.249111 82.972122 
L 370.249111 82.709046 
L 370.405531 82.709046 
L 370.405531 82.44597 
L 375.621812 82.44597 
L 375.621812 82.182894 
L 376.427286 82.182894 
L 376.427286 81.919819 
L 376.82715 81.919819 
L 376.896116 80.867515 
L 377.416336 80.867515 
L 377.416336 80.604439 
L 377.568283 80.604439 
L 377.578876 80.078288 
L 377.684417 80.078288 
L 377.684417 79.815212 
L 377.943297 79.815212 
L 377.943297 79.552136 
L 380.938443 79.552136 
L 381.04843 79.025984 
L 381.256231 79.025984 
L 381.331314 78.499833 
L 383.969062 78.499833 
L 383.969062 78.236757 
L 391.632333 78.236757 
L 391.687133 77.710605 
L 391.830531 77.710605 
L 391.830531 77.447529 
L 392.198019 77.447529 
L 392.198019 77.184454 
L 392.332113 77.184454 
L 392.332113 76.921378 
L 392.737572 76.921378 
L 392.838975 75.869074 
L 393.307342 75.869074 
L 393.307342 75.605999 
L 393.597155 75.605999 
L 393.689814 74.290619 
L 393.728585 74.290619 
L 393.728585 74.027544 
L 394.669679 74.027544 
L 394.669679 73.764468 
L 394.820218 73.764468 
L 394.834261 72.97524 
L 396.086216 72.97524 
L 396.086216 72.712164 
L 396.329598 72.712164 
L 396.329598 72.449089 
L 396.553401 72.449089 
L 396.553401 72.186013 
L 396.764613 72.186013 
L 396.764613 71.922937 
L 397.026224 71.922937 
L 397.026224 71.659861 
L 397.326557 71.659861 
L 397.343667 70.870634 
L 397.529334 70.870634 
L 397.529334 70.607558 
L 400.832695 70.607558 
L 400.841011 69.81833 
L 401.221526 69.81833 
L 401.309162 69.029103 
L 401.445298 69.029103 
L 401.530519 68.502951 
L 401.679465 68.502951 
L 401.783633 67.450648 
L 404.37358 67.450648 
L 404.37358 67.187572 
L 404.599914 67.187572 
L 404.599914 66.924496 
L 404.806207 66.924496 
L 404.897234 66.398344 
L 404.925492 66.398344 
L 404.962513 65.609117 
L 405.514686 65.609117 
L 405.54988 65.082965 
L 407.190473 65.082965 
L 407.208452 64.293738 
L 410.83736 64.293738 
L 410.861295 63.50451 
L 414.289735 63.50451 
L 414.387689 62.715283 
L 414.570835 62.715283 
L 414.638178 62.189131 
L 414.843453 62.189131 
L 414.895223 61.136828 
L 416.200924 61.136828 
L 416.207167 60.3476 
L 427.246178 60.3476 
L 427.246178 59.821449 
L 433.567559 59.821449 
L 433.616744 59.295297 
L 451.473832 59.295297 
L 451.526047 58.769145 
L 452.404998 58.769145 
L 452.458158 58.242994 
L 453.12753 58.242994 
L 453.129855 57.716842 
L 453.918905 57.716842 
L 453.937061 57.19069 
L 468.360467 57.19069 
L 468.460746 56.664539 
L 470.067077 56.664539 
L 470.11056 56.138387 
L 474.506546 56.138387 
L 474.51517 55.612235 
L 474.51517 55.612235 
" clip-path="url(#p0d66eb347f)" style="fill: none; stroke-dasharray: 3.7,1.6; stroke-dashoffset: 0; stroke: #e69f00"/>
   </g>
   <g id="line2d_59">
    <path d="M 301.729583 186.368118 
L 301.989129 186.368118 
L 301.989129 186.112235 
L 302.342743 186.112235 
L 302.342743 185.856353 
L 303.599222 185.856353 
L 303.599222 185.600471 
L 303.797257 185.600471 
L 303.877609 184.832824 
L 304.003894 184.832824 
L 304.111903 184.065176 
L 304.198644 184.065176 
L 304.228213 183.553412 
L 304.329419 183.553412 
L 304.374071 182.274 
L 304.448738 182.274 
L 304.55427 175.876941 
L 304.560222 175.876941 
L 304.658654 123.676941 
L 304.677875 123.676941 
L 304.786815 118.559294 
L 304.797688 118.559294 
L 304.905281 115.488706 
L 304.921675 115.488706 
L 304.993453 111.906353 
L 305.043127 111.906353 
L 305.151216 109.091647 
L 305.186176 109.091647 
L 305.202375 103.974 
L 305.354027 103.974 
L 305.354027 103.718118 
L 305.64934 103.718118 
L 305.676445 102.950471 
L 306.053877 102.950471 
L 306.137105 101.926941 
L 306.259976 101.926941 
L 306.348307 100.391647 
L 306.4045 100.391647 
L 306.459703 99.879882 
L 306.532816 99.879882 
L 306.642458 98.856353 
L 306.758525 98.856353 
L 306.760646 98.344588 
L 307.355542 98.344588 
L 307.355542 98.088706 
L 307.932943 98.088706 
L 308.020879 97.576941 
L 308.339751 97.576941 
L 308.360647 97.065176 
L 308.460389 97.065176 
L 308.460389 96.809294 
L 308.665848 96.809294 
L 308.75229 96.297529 
L 308.806927 96.297529 
L 308.818429 95.785765 
L 309.03869 95.785765 
L 309.057062 95.018118 
L 309.211083 95.018118 
L 309.211083 94.762235 
L 309.333176 94.762235 
L 309.361567 94.250471 
L 310.18084 94.250471 
L 310.239075 93.738706 
L 310.713413 93.738706 
L 310.792213 91.435765 
L 312.52005 91.435765 
L 312.52005 91.179882 
L 312.99554 91.179882 
L 312.99554 90.924 
L 313.556607 90.924 
L 313.556607 90.668118 
L 314.017528 90.668118 
L 314.058681 90.156353 
L 314.130766 90.156353 
L 314.130766 89.900471 
L 314.333024 89.900471 
L 314.427594 88.365176 
L 314.637439 88.365176 
L 314.69698 87.853412 
L 314.843139 87.853412 
L 314.843139 87.597529 
L 315.418495 87.597529 
L 315.43518 87.085765 
L 316.601183 87.085765 
L 316.601183 86.829882 
L 326.961684 86.829882 
L 326.961684 84.782824 
L 327.707839 84.782824 
L 327.707839 84.526941 
L 333.403409 84.526941 
L 333.512487 84.015176 
L 333.596701 84.015176 
L 333.596701 83.759294 
L 333.974935 83.759294 
L 333.974935 83.503412 
L 334.119892 83.503412 
L 334.119892 83.247529 
L 334.490941 83.247529 
L 334.490941 82.991647 
L 334.904126 82.991647 
L 334.904126 82.735765 
L 335.038123 82.735765 
L 335.038123 82.479882 
L 335.235123 82.479882 
L 335.235123 82.224 
L 335.366518 82.224 
L 335.366518 81.968118 
L 361.44793 81.968118 
L 361.498907 81.456353 
L 361.627909 81.456353 
L 361.719539 80.432824 
L 361.841089 80.432824 
L 361.841089 80.176941 
L 362.230729 80.176941 
L 362.230729 79.921059 
L 362.409978 79.921059 
L 362.409978 79.665176 
L 367.718932 79.665176 
L 367.718932 79.409294 
L 368.269289 79.409294 
L 368.269289 79.153412 
L 368.894397 79.153412 
L 368.968079 78.641647 
L 369.494041 78.641647 
L 369.557014 77.874 
L 369.667074 77.874 
L 369.667074 77.618118 
L 369.949662 77.618118 
L 369.949662 77.362235 
L 371.22427 77.362235 
L 371.22427 77.106353 
L 375.339178 77.106353 
L 375.37785 76.594588 
L 379.810878 76.594588 
L 379.810878 76.338706 
L 380.265197 76.338706 
L 380.358594 75.571059 
L 383.135679 75.571059 
L 383.135679 75.315176 
L 390.867263 75.315176 
L 390.867263 75.059294 
L 391.696037 75.059294 
L 391.696037 74.803412 
L 391.80777 74.803412 
L 391.80777 74.547529 
L 391.949773 74.547529 
L 391.949773 74.291647 
L 392.238139 74.291647 
L 392.278215 73.779882 
L 392.616816 73.779882 
L 392.62755 73.012235 
L 392.73512 73.012235 
L 392.73512 72.756353 
L 393.06422 72.756353 
L 393.06422 72.500471 
L 394.240844 72.500471 
L 394.270871 71.988706 
L 396.134857 71.988706 
L 396.134857 71.732824 
L 396.429511 71.732824 
L 396.429511 71.476941 
L 396.649675 71.476941 
L 396.677931 70.709294 
L 396.919032 70.709294 
L 396.9717 70.197529 
L 397.075593 70.197529 
L 397.11586 69.174 
L 397.189032 69.174 
L 397.283721 68.150471 
L 397.380768 68.150471 
L 397.40692 67.638706 
L 397.796764 67.638706 
L 397.796764 67.382824 
L 400.513579 67.382824 
L 400.513579 67.126941 
L 401.241879 67.126941 
L 401.333846 66.359294 
L 401.428525 66.359294 
L 401.507443 65.847529 
L 401.64983 65.847529 
L 401.758767 64.824 
L 404.876885 64.824 
L 404.876885 64.568118 
L 410.146155 64.568118 
L 410.146155 64.312235 
L 414.321869 64.312235 
L 414.377139 63.800471 
L 414.447608 63.800471 
L 414.447608 63.544588 
L 414.591677 63.544588 
L 414.611801 63.032824 
L 414.782751 63.032824 
L 414.842942 62.009294 
L 415.496718 62.009294 
L 415.496718 61.753412 
L 418.73762 61.753412 
L 418.73762 61.241647 
L 418.869084 61.241647 
L 418.869084 60.729882 
L 419.189698 60.729882 
L 419.254337 58.682824 
L 419.378133 58.682824 
L 419.378133 58.171059 
L 419.741784 58.171059 
L 419.741784 57.659294 
L 432.023292 57.659294 
L 432.023292 57.403412 
L 451.509955 57.403412 
L 451.509955 57.147529 
L 451.821665 57.147529 
L 451.821665 56.891647 
L 452.680697 56.891647 
L 452.737186 56.379882 
L 468.534029 56.379882 
L 468.534029 56.124 
L 470.099681 56.124 
L 470.099681 55.868118 
L 474.688419 55.868118 
L 474.688419 55.612235 
L 474.688419 55.612235 
" clip-path="url(#p0d66eb347f)" style="fill: none; stroke-dasharray: 1,1.65; stroke-dashoffset: 0; stroke: #56b4e9"/>
   </g>
   <g id="line2d_60">
    <path d="M 302.269437 186.368616 
L 302.70303 186.368616 
L 302.70303 186.113233 
L 302.844088 186.113233 
L 302.849042 185.602466 
L 303.006967 185.602466 
L 303.076277 184.836315 
L 303.141394 184.836315 
L 303.229922 182.28248 
L 303.285564 182.28248 
L 303.375773 174.365589 
L 303.40059 174.365589 
L 303.505855 172.322521 
L 303.516066 172.322521 
L 303.623091 139.633426 
L 303.62801 139.633426 
L 303.737973 124.821179 
L 303.744159 124.821179 
L 303.850713 121.756577 
L 303.896131 121.756577 
L 303.995847 118.691974 
L 304.021096 118.691974 
L 304.129105 116.648905 
L 304.133854 116.648905 
L 304.225749 113.584303 
L 304.277122 113.584303 
L 304.350244 113.073536 
L 304.495184 113.073536 
L 304.521786 112.307385 
L 304.718983 112.307385 
L 304.812528 111.030467 
L 304.852793 111.030467 
L 304.953533 110.008933 
L 304.979689 110.008933 
L 305.011107 109.242782 
L 305.138561 109.242782 
L 305.23191 108.476632 
L 305.512823 108.476632 
L 305.512823 108.221248 
L 305.847538 108.221248 
L 305.955892 107.455097 
L 306.072312 107.455097 
L 306.072312 107.199714 
L 306.315251 107.199714 
L 306.315251 106.94433 
L 306.595843 106.94433 
L 306.595926 106.433563 
L 306.83232 106.433563 
L 306.903469 105.412029 
L 306.945443 105.412029 
L 307.026828 104.135111 
L 307.102287 104.135111 
L 307.193449 103.113577 
L 307.236105 103.113577 
L 307.314981 102.347426 
L 307.532873 102.347426 
L 307.630816 101.581276 
L 307.691059 101.581276 
L 307.691059 101.325892 
L 307.823289 101.325892 
L 307.870662 100.815125 
L 307.939582 100.815125 
L 307.939582 100.559741 
L 308.176241 100.559741 
L 308.274754 99.793591 
L 308.426751 99.793591 
L 308.426751 97.750522 
L 308.871485 97.750522 
L 308.887457 97.239755 
L 309.059786 97.239755 
L 309.059786 96.984372 
L 309.242285 96.984372 
L 309.255308 95.45207 
L 309.360426 95.45207 
L 309.443169 94.68592 
L 309.474442 94.68592 
L 309.532679 93.664385 
L 309.603819 93.664385 
L 309.636122 93.153618 
L 309.745549 93.153618 
L 309.83685 92.387467 
L 310.214288 92.387467 
L 310.295042 91.621317 
L 310.363643 91.621317 
L 310.363643 91.365933 
L 310.550146 91.365933 
L 310.621199 90.855166 
L 310.737781 90.855166 
L 310.753056 90.344399 
L 310.8726 90.344399 
L 310.8726 90.089015 
L 311.000059 90.089015 
L 311.000059 89.833632 
L 311.263192 89.833632 
L 311.270206 89.322865 
L 311.38358 89.322865 
L 311.405981 88.812098 
L 311.721916 88.812098 
L 311.721916 88.556714 
L 311.844182 88.556714 
L 311.844182 88.301331 
L 311.998658 88.301331 
L 311.998658 88.045947 
L 312.116135 88.045947 
L 312.172986 87.53518 
L 312.265967 87.53518 
L 312.372729 87.024413 
L 312.410953 87.024413 
L 312.488207 86.513646 
L 312.94875 86.513646 
L 312.94875 86.258262 
L 313.13546 86.258262 
L 313.13546 86.002879 
L 315.324012 86.002879 
L 315.324012 85.747495 
L 316.096693 85.747495 
L 316.096693 85.492111 
L 317.664345 85.492111 
L 317.664345 85.236728 
L 317.891999 85.236728 
L 317.891999 84.981344 
L 319.470251 84.981344 
L 319.470251 84.725961 
L 322.875215 84.725961 
L 322.875215 82.682892 
L 323.177113 82.682892 
L 323.177113 82.427509 
L 330.64085 82.427509 
L 330.703921 81.661358 
L 331.144882 81.661358 
L 331.144882 81.405975 
L 331.345861 81.405975 
L 331.345861 81.150591 
L 331.662836 81.150591 
L 331.662836 80.895207 
L 332.312511 80.895207 
L 332.350987 80.38444 
L 332.578004 80.38444 
L 332.578004 80.129057 
L 358.478453 80.129057 
L 358.528537 79.61829 
L 358.608012 79.61829 
L 358.673828 78.852139 
L 358.71933 78.852139 
L 358.71933 78.596755 
L 358.881096 78.596755 
L 358.881096 78.341372 
L 359.201026 78.341372 
L 359.201026 78.085988 
L 359.45512 78.085988 
L 359.45512 77.830605 
L 364.649861 77.830605 
L 364.649861 77.575221 
L 365.141678 77.575221 
L 365.141678 77.319838 
L 365.801625 77.319838 
L 365.801625 77.064454 
L 365.967707 77.064454 
L 365.967707 76.809071 
L 366.135416 76.809071 
L 366.135416 76.553687 
L 366.504017 76.553687 
L 366.602721 75.787536 
L 366.932007 75.787536 
L 366.932007 75.532153 
L 374.881161 75.532153 
L 374.973301 75.021386 
L 379.449565 75.021386 
L 379.449565 74.766002 
L 379.968435 74.766002 
L 380.035578 73.999851 
L 382.906212 73.999851 
L 382.906212 73.744468 
L 389.529599 73.744468 
L 389.529599 73.489084 
L 391.760906 73.489084 
L 391.760906 73.233701 
L 391.9219 73.233701 
L 391.9219 72.978317 
L 392.060308 72.978317 
L 392.150632 72.46755 
L 392.34836 72.46755 
L 392.34836 72.212166 
L 392.498527 72.212166 
L 392.509494 71.446016 
L 392.63051 71.446016 
L 392.63051 71.190632 
L 393.643056 71.190632 
L 393.735944 70.679865 
L 393.85399 70.679865 
L 393.960917 69.658331 
L 394.024593 69.658331 
L 394.024593 69.402947 
L 394.492369 69.402947 
L 394.492369 69.147564 
L 394.764822 69.147564 
L 394.764822 68.89218 
L 396.216332 68.89218 
L 396.216332 68.636797 
L 396.528868 68.636797 
L 396.578717 68.12603 
L 396.794228 68.12603 
L 396.794228 67.870646 
L 397.023017 67.870646 
L 397.040887 67.104495 
L 397.172397 67.104495 
L 397.261647 66.593728 
L 401.268803 66.593728 
L 401.355435 65.827578 
L 401.4261 65.827578 
L 401.496439 65.31681 
L 401.625385 65.31681 
L 401.728081 64.295276 
L 414.354986 64.295276 
L 414.434815 63.784509 
L 414.503736 63.784509 
L 414.548888 63.273742 
L 414.648134 63.273742 
L 414.72942 62.252208 
L 414.790781 62.252208 
L 414.790781 61.996824 
L 416.047771 61.996824 
L 416.04791 61.486057 
L 416.317267 61.486057 
L 416.40289 59.442989 
L 416.500933 59.442989 
L 416.50322 58.932222 
L 416.63664 58.932222 
L 416.638868 58.421454 
L 416.938178 58.421454 
L 416.938289 57.910687 
L 434.482137 57.910687 
L 434.482137 57.655304 
L 437.734802 57.655304 
L 437.734802 57.39992 
L 450.040127 57.39992 
L 450.040127 57.144537 
L 452.268406 57.144537 
L 452.268406 56.889153 
L 453.037878 56.889153 
L 453.037878 56.63377 
L 456.428013 56.63377 
L 456.428013 56.378386 
L 459.060466 56.378386 
L 459.060466 56.123002 
L 465.235734 56.123002 
L 465.235734 55.867619 
L 469.21289 55.867619 
L 469.21289 55.612235 
L 469.21289 55.612235 
" clip-path="url(#p0d66eb347f)" style="fill: none; stroke-dasharray: 6.4,1.6,1,1.6; stroke-dashoffset: 0; stroke: #cc79a7"/>
   </g>
   <g id="line2d_61">
    <path d="M 301.181214 186.371569 
L 301.264369 186.371569 
L 301.264369 186.119138 
L 301.719542 186.119138 
L 301.719542 185.866707 
L 302.367662 185.866707 
L 302.367662 185.614275 
L 302.733897 185.614275 
L 302.755841 185.109413 
L 303.196899 185.109413 
L 303.203142 184.604551 
L 303.331474 184.604551 
L 303.427612 179.051066 
L 303.482803 179.051066 
L 303.553424 176.274323 
L 303.640042 176.274323 
L 303.741169 175.012167 
L 303.758417 175.012167 
L 303.862074 169.206251 
L 303.870871 169.206251 
L 303.980535 126.545387 
L 303.985081 126.545387 
L 304.084494 117.710297 
L 304.098877 117.710297 
L 304.197432 114.428692 
L 304.223812 114.428692 
L 304.325572 110.894656 
L 304.353895 110.894656 
L 304.460966 109.884932 
L 304.465524 109.884932 
L 304.532868 108.875207 
L 304.607602 108.875207 
L 304.70641 107.36062 
L 304.731541 107.36062 
L 304.83482 105.846033 
L 304.889096 105.846033 
L 304.958913 105.08874 
L 305.038946 105.08874 
L 305.112594 104.079015 
L 305.175055 104.079015 
L 305.260024 102.81686 
L 305.343049 102.81686 
L 305.427409 102.059566 
L 305.481293 102.059566 
L 305.481293 101.807135 
L 305.601954 101.807135 
L 305.601954 101.554704 
L 305.82646 101.554704 
L 305.870062 100.544979 
L 305.94478 100.544979 
L 305.960714 100.040117 
L 306.079359 100.040117 
L 306.12554 99.535255 
L 306.342583 99.535255 
L 306.377687 99.030392 
L 306.64399 99.030392 
L 306.64399 98.777961 
L 306.80433 98.777961 
L 306.806106 97.515806 
L 307.041986 97.515806 
L 307.041986 97.263374 
L 307.220706 97.263374 
L 307.326623 96.506081 
L 307.588922 96.506081 
L 307.588922 96.25365 
L 307.871046 96.25365 
L 307.950419 95.243925 
L 308.017465 95.243925 
L 308.092887 94.486632 
L 308.131085 94.486632 
L 308.239306 93.981769 
L 308.361246 93.981769 
L 308.361246 93.729338 
L 308.644964 93.729338 
L 308.718251 93.224476 
L 308.807202 93.224476 
L 308.904071 92.719614 
L 309.126257 92.719614 
L 309.223604 90.195302 
L 309.537763 90.195302 
L 309.537763 89.942871 
L 309.753883 89.942871 
L 309.753883 89.69044 
L 310.315077 89.69044 
L 310.315077 89.438009 
L 310.456152 89.438009 
L 310.456152 89.185578 
L 310.858168 89.185578 
L 310.945755 88.428284 
L 310.996609 88.428284 
L 310.996609 88.175853 
L 311.259463 88.175853 
L 311.259463 87.923422 
L 311.642901 87.923422 
L 311.642901 87.670991 
L 311.927834 87.670991 
L 311.927834 87.41856 
L 312.041089 87.41856 
L 312.041089 87.166129 
L 312.5161 87.166129 
L 312.5161 86.913697 
L 313.082551 86.913697 
L 313.082551 86.661266 
L 313.429597 86.661266 
L 313.429597 86.408835 
L 316.099744 86.408835 
L 316.099744 86.156404 
L 318.336816 86.156404 
L 318.336816 85.903973 
L 324.838525 85.903973 
L 324.838525 83.884524 
L 325.180148 83.884524 
L 325.180148 83.632092 
L 330.557318 83.632092 
L 330.593696 83.12723 
L 330.695223 83.12723 
L 330.695223 82.874799 
L 331.185291 82.874799 
L 331.267869 82.369937 
L 331.797335 82.369937 
L 331.797335 82.117506 
L 332.025586 82.117506 
L 332.025586 81.865074 
L 332.242861 81.865074 
L 332.242861 81.612643 
L 332.44562 81.612643 
L 332.44562 81.360212 
L 361.55362 81.360212 
L 361.55362 81.107781 
L 361.89065 81.107781 
L 361.89065 80.85535 
L 362.143512 80.85535 
L 362.143512 80.602919 
L 362.96884 80.602919 
L 362.96884 80.350488 
L 363.449611 80.350488 
L 363.449611 80.098056 
L 363.624239 80.098056 
L 363.717946 79.593194 
L 364.022679 79.593194 
L 364.116887 79.088332 
L 364.137941 79.088332 
L 364.143909 78.58347 
L 364.333433 78.58347 
L 364.429054 77.826176 
L 364.464365 77.826176 
L 364.476503 77.321314 
L 364.898163 77.321314 
L 364.898163 77.068883 
L 365.184531 77.068883 
L 365.184531 76.816452 
L 375.631264 76.816452 
L 375.719308 76.311589 
L 380.005332 76.311589 
L 380.005332 76.059158 
L 380.298501 76.059158 
L 380.378901 75.301865 
L 381.69968 75.301865 
L 381.69968 75.049434 
L 383.2191 75.049434 
L 383.2191 74.797002 
L 384.06533 74.797002 
L 384.06533 74.544571 
L 387.28359 74.544571 
L 387.28359 74.29214 
L 388.798659 74.29214 
L 388.798659 74.039709 
L 389.516143 74.039709 
L 389.516143 73.787278 
L 391.741709 73.787278 
L 391.741709 73.534847 
L 391.891485 73.534847 
L 391.891485 73.282416 
L 392.031754 73.282416 
L 392.031754 73.029984 
L 392.172466 73.029984 
L 392.172466 72.777553 
L 392.331876 72.777553 
L 392.331876 72.525122 
L 392.530487 72.525122 
L 392.541469 71.767829 
L 392.659886 71.767829 
L 392.659886 71.515397 
L 396.192255 71.515397 
L 396.192255 71.262966 
L 396.53736 71.262966 
L 396.564766 70.758104 
L 396.755116 70.758104 
L 396.755116 70.505673 
L 397.072029 70.505673 
L 397.14984 69.495948 
L 397.305866 69.495948 
L 397.305866 69.243517 
L 399.657962 69.243517 
L 399.667984 68.738655 
L 399.785473 68.738655 
L 399.785473 68.486224 
L 400.039688 68.486224 
L 400.11933 67.981361 
L 400.154911 67.981361 
L 400.263093 67.476499 
L 400.44188 67.476499 
L 400.44188 67.224068 
L 400.78455 67.224068 
L 400.78455 66.971637 
L 401.271158 66.971637 
L 401.356619 66.214343 
L 401.428368 66.214343 
L 401.498254 65.709481 
L 401.626167 65.709481 
L 401.727661 64.699757 
L 414.345148 64.699757 
L 414.419365 64.194894 
L 414.489148 64.194894 
L 414.559472 63.690032 
L 414.639494 63.690032 
L 414.745262 62.680307 
L 414.805365 62.680307 
L 414.805365 62.427876 
L 420.034514 62.427876 
L 420.116396 60.913289 
L 420.517627 60.913289 
L 420.555424 59.398702 
L 420.632741 59.398702 
L 420.635226 58.89384 
L 420.87381 58.89384 
L 420.875277 58.388978 
L 421.070706 58.388978 
L 421.070908 57.884116 
L 430.545809 57.884116 
L 430.545809 57.631684 
L 434.267461 57.631684 
L 434.267461 57.379253 
L 450.878019 57.379253 
L 450.878019 57.126822 
L 453.855097 57.126822 
L 453.855097 56.874391 
L 454.439015 56.874391 
L 454.439015 56.62196 
L 457.349975 56.62196 
L 457.349975 56.369529 
L 462.124752 56.369529 
L 462.124752 56.117098 
L 466.393259 56.117098 
L 466.393259 55.864666 
L 470.731211 55.864666 
L 470.731211 55.612235 
L 470.731211 55.612235 
" clip-path="url(#p0d66eb347f)" style="fill: none; stroke: #d55e00; stroke-linecap: square"/>
   </g>
   <g id="patch_6">
    <path d="M 292.505854 186.624 
L 292.505854 52.992 
" style="fill: none; stroke: #000000; stroke-width: 0.6; stroke-linejoin: miter; stroke-linecap: square"/>
   </g>
   <g id="patch_7">
    <path d="M 292.505854 186.624 
L 483.36378 186.624 
" style="fill: none; stroke: #000000; stroke-width: 0.6; stroke-linejoin: miter; stroke-linecap: square"/>
   </g>
   <g id="text_23">
    <text style="font: 700 9px 'Arial', 'Helvetica', 'Liberation Sans', 'DejaVu Sans', sans-serif; text-anchor: start" x="265.785745" y="48.98304" transform="rotate(-0 265.785745 48.98304)">(b)</text>
   </g>
  </g>
  <g id="legend_1">
   <g id="line2d_62">
    <path d="M 145.880892 8.922813 
L 152.880892 8.922813 
L 152.880892 8.922813 
L 159.880892 8.922813 
L 159.880892 8.922813 
" style="fill: none; stroke-dasharray: 3.7,1.6; stroke-dashoffset: 0; stroke: #e69f00"/>
   </g>
   <g id="text_24">
    <text style="font: 7px 'Arial', 'Helvetica', 'Liberation Sans', 'DejaVu Sans', sans-serif; text-anchor: start" x="165.480892" y="11.372813" transform="rotate(-0 165.480892 11.372813)">F02: n=498, failures=43</text>
   </g>
   <g id="line2d_63">
    <path d="M 145.880892 18.948125 
L 152.880892 18.948125 
L 152.880892 18.948125 
L 159.880892 18.948125 
L 159.880892 18.948125 
" style="fill: none; stroke-dasharray: 1,1.65; stroke-dashoffset: 0; stroke: #56b4e9"/>
   </g>
   <g id="text_25">
    <text style="font: 7px 'Arial', 'Helvetica', 'Liberation Sans', 'DejaVu Sans', sans-serif; text-anchor: start" x="165.480892" y="21.398125" transform="rotate(-0 165.480892 21.398125)">F03: n=512, failures=29</text>
   </g>
   <g id="line2d_64">
    <path d="M 253.417298 8.922813 
L 260.417298 8.922813 
L 260.417298 8.922813 
L 267.417298 8.922813 
L 267.417298 8.922813 
" style="fill: none; stroke-dasharray: 6.4,1.6,1,1.6; stroke-dashoffset: 0; stroke: #cc79a7"/>
   </g>
   <g id="text_26">
    <text style="font: 7px 'Arial', 'Helvetica', 'Liberation Sans', 'DejaVu Sans', sans-serif; text-anchor: start" x="273.017298" y="11.372813" transform="rotate(-0 273.017298 11.372813)">A04: n=513, failures=28</text>
   </g>
   <g id="line2d_65">
    <path d="M 253.417298 18.948125 
L 260.417298 18.948125 
L 260.417298 18.948125 
L 267.417298 18.948125 
L 267.417298 18.948125 
" style="fill: none; stroke: #d55e00; stroke-linecap: square"/>
   </g>
   <g id="text_27">
    <text style="font: 7px 'Arial', 'Helvetica', 'Liberation Sans', 'DejaVu Sans', sans-serif; text-anchor: start" x="273.017298" y="21.398125" transform="rotate(-0 273.017298 21.398125)">F04: n=519, failures=22</text>
   </g>
  </g>
 </g>
 <defs>
  <clipPath id="p594f318d41">
   <rect x="44.390551" y="52.992" width="190.857925" height="133.632"/>
  </clipPath>
  <clipPath id="p0d66eb347f">
   <rect x="292.505854" y="52.992" width="190.857925" height="133.632"/>
  </clipPath>
 </defs>
</svg>
